<?xml version="1.0" encoding="UTF-8" standalone="no"?>
<svg
   xmlns:dc="http://purl.org/dc/elements/1.1/"
   xmlns:cc="http://creativecommons.org/ns#"
   xmlns:rdf="http://www.w3.org/1999/02/22-rdf-syntax-ns#"
   xmlns:svg="http://www.w3.org/2000/svg"
   xmlns="http://www.w3.org/2000/svg"
   width="500"
   height="500"
   viewBox="0 0 132.29166 132.29167"
   version="1.1"
   id="svg8">
  <defs
     id="defs2" />
  <metadata
     id="metadata5">
    <rdf:RDF>
      <cc:Work
         rdf:about="">
        <dc:format>image/svg+xml</dc:format>
        <dc:type
           rdf:resource="http://purl.org/dc/dcmitype/StillImage" />
        <dc:title></dc:title>
      </cc:Work>
    </rdf:RDF>
  </metadata>
  <g
     id="layer1">
    <path
       style="fill:#ffffff;fill-opacity:1;stroke:none;stroke-width:10.7002;stroke-linecap:round;stroke-linejoin:round;stroke-miterlimit:4;stroke-dasharray:none"
       id="path855"
       width="132.29169"
       height="18.898809"
       x="-1.4210855e-14"
       y="-2.8610229e-06"
       d="M 17.861613,0.97901919 131.31265,114.43005 a 3.3425828,3.3425828 0 0 1 0,4.72714 l -12.15546,12.15546 a 3.3425828,3.3425828 0 0 1 -4.72714,0 L 0.9790219,17.861612 a 3.3425828,3.3425828 0 0 1 0,-4.727126 L 13.134488,0.97901919 a 3.3425828,3.3425828 0 0 1 4.727125,0 z" />
    <path
       style="fill:#ffffff;fill-opacity:1;stroke:none;stroke-width:10.7002;stroke-linecap:round;stroke-linejoin:round;stroke-miterlimit:4;stroke-dasharray:none"
       id="path859"
       width="132.29169"
       height="18.898809"
       x="-1.4210855e-14"
       y="113.39287"
       d="M 0.97902832,114.43006 114.43004,0.97903577 a 3.3425822,3.3425822 0 0 1 4.72714,-8.84e-6 L 131.31264,13.134489 a 3.3425822,3.3425822 0 0 1 0,4.727137 L 17.861619,131.31265 a 3.3425822,3.3425822 0 0 1 -4.727131,-1e-5 L 0.97902579,119.15718 a 3.3425822,3.3425822 0 0 1 2.53e-6,-4.72712 z" />
  </g>
</svg>
