<?xml version="1.0" encoding="UTF-8" standalone="no"?>
<!-- Created with Inkscape (http://www.inkscape.org/) -->

<svg
   width="97.21286mm"
   height="97.212791mm"
   viewBox="0 0 97.21286 97.212791"
   version="1.1"
   id="svg5"
   xmlns="http://www.w3.org/2000/svg"
   xmlns:svg="http://www.w3.org/2000/svg">
  <defs
     id="defs2" />
  <g
     id="layer1"
     transform="translate(-75.346957,-43.134495)">
    <path
       id="path1366"
       style="color:#000000;font-size:73.7757px;line-height:1.25;font-family:'Myriad Pro';-inkscape-font-specification:'Myriad Pro';font-variant-ligatures:none;fill:#32b478;fill-opacity:1;stroke-width:4.22273;-inkscape-stroke:none;paint-order:stroke fill markers"
       d="M 110.14731,43.211988 97.619963,55.738316 a 0.26459303,0.26459303 0.00128825 0 1 -0.374184,-8e-6 l -4.195827,-4.195863 a 0.26458298,0.26458298 2.007788e-4 0 0 -0.374177,-10e-7 l -8.92092,8.920869 a 0.26458421,0.26458421 90.000258 0 0 -1e-6,0.374178 l 1.16753,1.167545 a 3763.7834,3763.7834 45.004381 0 1 0.374149,0.374206 l 2.654264,2.655043 a 0.26462193,0.26462193 90.00423 0 1 -2.8e-5,0.374205 L 75.424452,77.934784 a 0.26458239,0.26458239 89.99995 0 0 0,0.374177 l 13.244432,13.244362 a 0.26459193,0.26459193 89.998918 0 1 7e-6,0.374183 L 75.46464,105.13268 a 0.26459261,0.26459261 89.998993 0 0 7e-6,0.37419 l 12.526323,12.52632 a 0.26458106,0.26458106 90.000243 0 1 -10e-7,0.37418 l -4.195918,4.19584 a 0.26458089,0.26458089 90.000224 0 0 -10e-7,0.37418 l 8.920915,8.9209 a 0.26466456,0.26466456 0.00875328 0 0 0.374235,6e-5 l 1.167422,-1.16671 a 1133.8307,1133.8307 135.00418 0 0 0.374205,-0.37415 l 2.65418,-2.65503 a 0.26454092,0.26454092 179.9954 0 1 0.374148,-3e-5 l 12.527265,12.52726 a 0.26457363,0.26457363 179.99894 0 0 0.37417,-1e-5 l 13.20425,-13.20521 a 0.2645731,0.2645731 179.999 0 1 0.37417,-10e-6 l 13.24528,13.24533 a 0.26457362,0.26457362 179.99905 0 0 0.37417,-1e-5 l 12.52633,-12.52719 a 0.26457352,0.26457352 179.99906 0 1 0.37417,-1e-5 l 4.19584,4.19586 a 0.26459613,0.26459613 0.00151118 0 0 0.37419,10e-6 l 8.92182,-8.92092 a 0.26457081,0.26457081 90.001541 0 0 10e-6,-0.37417 l -1.16752,-1.16753 a 309438.46,309438.46 45.000235 0 1 -0.37418,-0.37418 L 159.956,118.4475 a 0.26458433,0.26458433 90.000175 0 1 0,-0.37418 l 12.52632,-12.52629 a 0.26457358,0.26457358 89.999011 0 0 -10e-6,-0.37417 L 159.23696,91.928444 a 0.2645733,0.2645733 89.999042 0 1 -1e-5,-0.37417 l 13.24537,-13.245313 a 0.26458246,0.26458246 90.000034 0 0 0,-0.374176 L 159.95506,65.407548 a 0.26458447,0.26458447 89.999816 0 1 0,-0.374178 l 4.19583,-4.195879 a 0.26458411,0.26458411 89.999777 0 0 0,-0.374178 l -8.92091,-8.920869 a 0.26457565,0.26457565 179.99903 0 0 -0.37417,7e-6 l -1.16746,1.167527 a 12024.476,12024.476 134.99946 0 1 -0.37417,0.374181 l -2.65422,2.654152 a 0.26458665,0.26458665 3.5947479e-4 0 1 -0.37418,-3e-6 L 137.75947,43.211996 a 0.26458279,0.26458279 179.99994 0 0 -0.37418,0 l -13.24434,13.244398 a 0.26459128,0.26459128 179.99902 0 1 -0.37418,6e-6 L 110.5215,43.21199 a 0.26460262,0.26460262 2.4990252e-4 0 0 -0.37419,-2e-6 z m 0.37419,6.168693 7.82827,7.828361 a 0.26458541,0.26458541 90.000092 0 1 0,0.374179 L 105.8198,70.113253 a 0.19149897,0.19149897 122.89196 0 0 -0.14699,0.227279 l -2.93559,2.935524 a 0.19137608,0.19137608 147.12566 0 1 -0.22729,0.146897 L 89.792783,86.140048 a 0.26458445,0.26458445 180 0 1 -0.374178,0 l -7.828363,-7.828329 a 0.2645825,0.2645825 89.999964 0 1 0,-0.374176 L 94.120299,65.407508 a 0.26455691,0.26455691 89.997192 0 0 -1.8e-5,-0.374158 l -4.199529,-4.198698 a 0.26455402,0.26455402 89.997505 0 1 -1.6e-5,-0.374156 l 2.749427,-2.749363 a 0.26455913,0.26455913 0.00329917 0 1 0.37416,2.2e-5 l 4.19867,4.199537 a 0.26455742,0.26455742 0.00311412 0 0 0.374159,2e-5 L 110.14732,49.380679 a 0.26458329,0.26458329 3.132046e-4 0 1 0.37418,2e-6 z m 27.23153,-1e-6 12.52996,12.530061 a 0.26458425,0.26458425 3.1971889e-4 0 0 0.37418,2e-6 l 4.19965,-4.199589 a 0.26458379,0.26458379 3.7033044e-4 0 1 0.37418,3e-6 l 2.74933,2.749365 a 0.2645593,0.2645593 90.002923 0 1 -2e-5,0.374161 l -4.19951,4.198706 a 0.26455761,0.26455761 90.00274 0 0 -2e-5,0.37416 l 12.53005,12.530032 a 0.26458224,0.26458224 90.000074 0 1 0,0.374177 l -7.82837,7.828319 a 0.26458353,0.26458353 1.7045242e-4 0 1 -0.37418,-1e-6 l -9.44374,-9.443793 a 6569.873,6569.873 44.997841 0 0 -0.37419,-0.374163 l -5.83562,-5.834704 a 6856.9594,6856.9594 44.997745 0 1 -0.37419,-0.374163 L 129.55049,57.583221 a 0.26458314,0.26458314 89.999976 0 1 0,-0.374178 l 7.82836,-7.828363 a 0.2645823,0.2645823 1.0814598e-4 0 1 0.37418,0 z m -13.61582,8.954238 11.77464,11.774588 a 0.26458211,0.26458211 90 0 1 0,0.374176 L 124.13721,82.25827 a 0.26458335,0.26458335 1.2969499e-4 0 1 -0.37418,-10e-7 L 111.9885,70.483683 a 0.26458451,0.26458451 90 0 1 0,-0.374178 l 11.77453,-11.774586 a 0.26458335,0.26458335 179.99987 0 1 0.37418,-10e-7 z m 15.23494,15.234994 2.74849,2.748473 a 0.26458261,0.26458261 89.999885 0 1 0,0.374177 L 130.3461,88.46712 a 0.26458604,0.26458604 179.99967 0 1 -0.37418,2e-6 l -2.7485,-2.748438 a 0.26458092,0.26458092 89.999637 0 1 0,-0.374176 l 11.77455,-11.774595 a 0.26458375,0.26458375 179.99985 0 1 0.37418,-10e-7 z m -30.42883,0.04114 11.73351,11.733504 a 0.26458155,0.26458155 90.000174 0 1 0,0.374176 l -2.7485,2.748466 a 0.26458471,0.26458471 2.1779219e-4 0 1 -0.37418,-2e-6 l -11.7335,-11.733531 a 0.26458123,0.26458123 90.000296 0 1 0,-0.374176 l 2.74849,-2.748439 a 0.26458583,0.26458583 2.5200172e-4 0 1 0.37418,2e-6 z m -6.24994,6.1687 11.77364,11.774564 a 0.26459371,0.26459371 90.001131 0 1 -1e-5,0.374185 L 102.7335,103.66201 a 0.26457289,0.26457289 0.00113784 0 1 -0.37417,-10e-6 L 90.585693,91.887436 a 0.26459375,0.26459375 90.00114 0 1 8e-6,-0.374185 L 102.31921,79.779746 a 0.26457297,0.26457297 0.00113313 0 1 0.37417,7e-6 z m 42.88859,-7e-6 11.77368,11.773664 a 0.26458271,0.26458271 90.000025 0 1 0,0.374177 l -11.77462,11.774583 a 0.26458316,0.26458316 1.1083035e-4 0 1 -0.37418,0 L 133.43232,91.927584 a 0.2645642,0.2645642 90.002201 0 1 1e-5,-0.374164 l 11.77545,-11.773688 a 0.26460326,0.26460326 0.00211521 0 1 0.37419,1.4e-5 z m -21.44476,9.025185 2.7484,2.748477 a 0.26458837,0.26458837 90.000179 0 1 0,0.374181 l -2.7484,2.74844 a 0.26458375,0.26458375 179.99959 0 1 -0.37418,3e-6 l -2.74849,-2.748446 a 0.26458075,0.26458075 89.999821 0 1 0,-0.374175 l 2.74849,-2.748483 a 0.26458045,0.26458045 4.1284337e-4 0 1 0.37418,3e-6 z m -6.20891,6.208886 2.74856,2.749368 a 0.26462185,0.26462185 90.004268 0 1 -3e-5,0.374204 l -11.73351,11.733471 a 0.34655576,0.34655576 135.14215 0 1 -0.18802,0.18709 l -2.9355,-2.93552 a 0.26458537,0.26458537 89.999963 0 1 0,-0.37418 l 11.73435,-11.734459 a 0.26454317,0.26454317 0.00409054 0 1 0.37415,2.6e-5 z m 12.4178,-2.7e-5 11.73444,11.73446 a 0.264581,0.264581 90.000298 0 1 0,0.37418 l -2.74849,2.74843 a 0.26458615,0.26458615 2.4565373e-4 0 1 -0.37418,0 L 127.22342,98.136433 a 0.26458153,0.26458153 90.000136 0 1 0,-0.374176 l 2.7485,-2.748468 a 0.26458465,0.26458465 1.8761151e-4 0 1 0.37418,10e-7 z m -40.513016,2.286913 9.443754,9.443787 a 85598.02,85598.02 44.999928 0 0 0.374177,0.37418 l 5.834715,5.83466 a 121686.13,121686.13 44.999875 0 1 0.37418,0.37418 l 12.53005,12.53005 a 0.26458333,0.26458333 90 0 1 0,0.37418 l -7.82836,7.82836 a 0.26458347,0.26458347 179.99998 0 1 -0.37418,0 L 97.657355,121.53005 a 0.2645822,0.2645822 179.99985 0 0 -0.374177,0 l -4.19955,4.19959 a 0.2645788,0.2645788 2.1541278e-4 0 1 -0.374174,0 l -2.748411,-2.74848 a 0.2645874,0.2645874 90.000266 0 1 2e-6,-0.37418 l 4.199546,-4.19957 a 0.26458377,0.26458377 89.999872 0 0 -10e-7,-0.37418 L 81.630542,105.50322 a 0.26458253,0.26458253 90.000007 0 1 0,-0.37418 l 7.828365,-7.828338 a 0.26458328,0.26458328 9.9672046e-5 0 1 0.374177,10e-7 z m 68.649376,0.04019 7.82837,7.828348 a 0.26458274,0.26458274 89.99998 0 1 0,0.37418 l -12.53005,12.53003 a 0.26458399,0.26458399 90.000116 0 0 0,0.37418 l 4.19955,4.19958 a 0.26458674,0.26458674 89.999819 0 1 0,0.37418 l -2.74933,2.74939 a 0.2645831,0.2645831 179.99947 0 1 -0.37418,0 l -4.19965,-4.19957 a 0.26458523,0.26458523 179.99971 0 0 -0.37418,0 l -12.52996,12.53 a 0.2645834,0.2645834 179.9999 0 1 -0.37418,0 l -7.82836,-7.82833 a 0.26458254,0.26458254 89.999981 0 1 0,-0.37418 l 12.53005,-12.53002 a 0.1914957,0.1914957 122.92028 0 0 0.14709,-0.22719 l 2.93642,-2.93651 a 0.19117852,0.19117852 147.11455 0 1 0.22719,-0.14689 l 12.71704,-12.717196 a 0.26458212,0.26458212 179.99978 0 1 0.37418,-2e-6 z m -34.53234,3.695638 11.96162,11.96076 a 0.34655839,0.34655839 45.14303 0 1 0.1871,0.18803 l -11.92058,11.9206 a 0.26458257,0.26458257 3.5291392e-5 0 1 -0.37418,0 l -11.77455,-11.7746 a 0.26459415,0.26459415 89.998947 0 1 -10e-6,-0.37419 l 11.7326,-11.7335 a 0.34652952,0.34652952 135.13831 0 1 0.188,-0.1871 z" />
  </g>
</svg>
